<?xml version="1.0" standalone="no"?>
<!DOCTYPE svg PUBLIC "-//W3C//DTD SVG 20010904//EN"
 "http://www.w3.org/TR/2001/REC-SVG-20010904/DTD/svg10.dtd">
<svg version="1.0" xmlns="http://www.w3.org/2000/svg"
 width="1024.000000pt" height="1024.000000pt" viewBox="0 0 1024.000000 1024.000000"
 preserveAspectRatio="xMidYMid meet">
<metadata>
Created by potrace 1.14, written by Peter Selinger 2001-2017
</metadata>
<g transform="translate(0.000000,1024.000000) scale(0.100000,-0.100000)"
fill="#000000" stroke="none">
<path d="M5630 7791 l45 -7 -35 -6 c-19 -4 -73 -12 -120 -20 l-85 -13 210 -6
c213 -7 285 -14 285 -30 0 -5 11 -9 25 -9 14 0 25 -4 25 -8 0 -5 -13 -8 -28
-7 -44 3 -77 -12 -63 -29 13 -15 5 -27 -15 -19 -10 4 -14 -4 -14 -30 0 -20 -7
-43 -16 -51 -8 -9 -13 -19 -10 -24 2 -4 -4 -8 -14 -8 -11 0 -16 6 -13 16 3 8
-4 4 -15 -9 -10 -13 -24 -21 -30 -17 -6 3 -13 2 -16 -3 -4 -6 7 -8 24 -6 36 5
36 5 10 -25 -12 -13 -20 -18 -20 -10 0 7 -2 11 -5 8 -3 -3 -1 -16 4 -29 12
-34 -14 -60 -33 -33 -13 17 -14 17 -20 -3 -4 -11 -3 -28 0 -38 6 -14 3 -16
-12 -11 -14 4 -31 -6 -62 -40 -44 -45 -62 -51 -70 -23 -3 11 -2 11 7 -1 10
-13 12 -13 21 0 5 8 10 20 10 25 0 6 -4 5 -8 -1 -4 -7 -18 -11 -31 -10 -14 0
-26 -5 -28 -14 -4 -13 -3 -13 6 0 6 9 11 10 11 3 0 -22 -28 -39 -59 -37 -17 1
-29 -2 -26 -6 3 -5 -7 -9 -22 -9 -52 -2 -64 -4 -56 -12 5 -5 60 0 123 11 116
21 150 19 150 -5 0 -17 -11 -20 -125 -40 -361 -61 -603 -139 -915 -294 -351
-175 -658 -400 -957 -703 -209 -212 -382 -419 -442 -532 -18 -32 -55 -92 -83
-133 -70 -104 -196 -352 -263 -515 -59 -145 -94 -266 -120 -407 -23 -122 -90
-377 -114 -435 -26 -60 -70 -118 -129 -171 l-44 -40 116 -117 115 -116 -35
-46 c-19 -25 -43 -50 -54 -56 -11 -6 -20 -17 -20 -24 0 -8 36 -44 80 -81 44
-37 80 -70 80 -74 0 -4 -11 -40 -25 -80 -14 -40 -23 -76 -20 -82 9 -13 42 -11
74 5 26 14 31 13 82 -21 60 -40 151 -117 247 -207 54 -51 60 -61 45 -67 -10
-4 -85 -9 -168 -10 -109 -2 -135 -4 -95 -9 45 -6 49 -7 20 -9 -28 -2 -31 -4
-14 -9 16 -5 20 -12 14 -27 -4 -11 -4 -32 1 -47 4 -14 5 -29 1 -32 -3 -4 -6
-16 -7 -29 -2 -12 -6 -37 -10 -54 -6 -28 -5 -33 11 -35 72 -6 -257 -16 -586
-17 -217 -1 -440 -4 -495 -8 -90 -6 -96 -8 -65 -17 40 -11 6077 -22 6170 -10
50 6 53 7 30 17 -16 7 -256 13 -680 18 -793 8 -757 8 -745 17 12 8 14 146 3
158 -5 4 -8 16 -8 27 0 17 -2 18 -17 6 -26 -20 88 107 216 241 99 103 108 116
96 133 -7 10 -54 63 -104 118 -50 55 -91 103 -91 107 0 4 49 24 108 46 59 21
134 51 167 66 33 15 70 31 83 34 12 4 20 11 17 16 -3 5 3 11 12 13 16 4 16 5
1 6 -17 1 -22 41 -5 41 5 0 2 12 -8 26 -13 20 -14 28 -4 40 10 12 10 17 0 27
-10 9 -11 8 -6 -8 5 -16 5 -17 -3 -5 -8 10 -8 18 0 27 5 7 8 18 5 25 -3 8 -6
5 -6 -6 -1 -11 -4 -16 -8 -12 -7 7 -14 49 -14 90 0 10 -7 25 -15 33 -7 8 -14
33 -14 55 0 25 -8 49 -20 65 -11 14 -17 29 -14 34 3 5 0 9 -5 9 -6 0 -11 14
-11 31 0 17 -4 28 -10 24 -5 -3 -10 1 -10 9 0 9 5 16 10 16 6 0 10 5 10 10 0
6 -7 10 -15 10 -8 0 -19 16 -25 40 -6 22 -15 40 -20 40 -6 0 -10 11 -10 25 0
14 -3 25 -8 25 -4 0 -16 16 -27 36 -10 19 -31 46 -47 59 -22 18 -25 25 -14 34
7 6 16 9 19 6 4 -3 4 -2 1 2 -3 5 -9 8 -14 8 -5 0 -17 10 -28 23 -11 13 -23
23 -26 23 -20 -3 -26 0 -21 8 3 5 1 12 -5 16 -6 4 -7 11 -4 17 5 7 1 9 -9 5
-12 -4 -14 -2 -10 10 4 11 2 14 -5 9 -7 -4 -12 -1 -12 8 0 9 -4 16 -10 16 -5
0 -10 -5 -10 -12 0 -6 -3 -8 -7 -4 -5 4 0 14 10 21 18 13 17 15 -12 30 -17 8
-31 20 -31 26 0 6 -8 9 -17 7 -21 -3 -43 9 -43 23 0 5 5 9 11 9 5 0 7 -4 4
-10 -3 -5 -1 -10 5 -10 21 0 4 25 -18 26 -12 1 -19 -3 -16 -7 3 -5 1 -9 -5 -9
-5 0 -11 10 -13 23 -2 16 -9 21 -26 20 -12 -2 -22 2 -22 9 0 6 -3 8 -7 5 -3
-4 -13 2 -21 14 -8 11 -20 18 -29 15 -8 -3 -11 -2 -8 3 3 5 1 12 -4 15 -5 4
-12 2 -16 -4 -3 -5 -12 -10 -18 -10 -9 0 -9 2 0 8 9 6 6 11 -8 21 -12 7 -18 8
-15 3 7 -11 -8 -10 -36 3 -10 4 -18 13 -18 20 0 16 -27 27 -35 15 -4 -6 -11
-10 -16 -10 -6 0 -7 5 -4 10 10 16 -11 12 -25 -5 -13 -15 -35 -11 -25 5 3 5
-3 14 -14 19 -23 13 -42 14 -23 2 10 -6 9 -10 -7 -14 -13 -3 -19 -1 -14 6 4 6
-2 8 -15 5 -12 -3 -23 -1 -26 6 -3 7 -5 7 -5 -2 -1 -13 -46 -7 -67 9 -6 5 -14
6 -17 2 -4 -3 -7 0 -7 8 -1 10 -3 9 -11 -3 -5 -10 -15 -18 -22 -18 -7 0 -6 4
3 10 8 5 10 10 5 10 -6 0 -16 -5 -23 -12 -8 -8 -15 -8 -26 1 -10 8 -16 9 -21
1 -3 -5 -12 -10 -18 -10 -7 0 -6 4 3 10 11 7 12 10 2 10 -8 0 -16 -9 -19 -19
-5 -18 -36 -22 -51 -6 -3 2 -11 0 -19 -6 -10 -9 -13 -8 -13 2 0 9 -3 10 -8 4
-14 -20 -79 -33 -124 -24 -24 4 -96 8 -161 9 l-117 0 -53 53 c-28 28 -110 112
-180 185 l-128 132 -57 0 c-105 -1 -179 -47 -271 -173 -34 -47 -83 -99 -107
-117 -25 -18 -75 -68 -111 -111 -36 -44 -85 -93 -109 -110 -64 -43 -79 -63
-93 -118 -17 -68 -71 -127 -145 -162 l-61 -28 105 0 105 -1 117 118 c64 64
119 127 122 138 4 12 21 32 39 45 17 13 124 115 237 226 113 112 211 203 217
203 6 0 116 -109 244 -243 128 -133 299 -310 379 -392 137 -141 298 -308 590
-610 69 -71 213 -222 320 -335 107 -113 214 -226 239 -252 33 -35 42 -51 34
-59 -8 -8 -31 8 -85 63 -146 148 -371 380 -738 763 -790 821 -954 990 -965
993 -11 3 -278 -264 -780 -783 -768 -793 -1077 -1105 -1093 -1105 -6 0 -16 9
-22 20 -9 17 -6 25 20 51 16 17 28 34 26 37 -2 4 16 23 40 42 23 19 45 40 48
47 5 12 -12 12 -33 -1 -7 -5 -30 -10 -50 -12 -29 -3 -32 -2 -11 5 23 7 23 8 5
13 -17 4 -16 5 3 3 12 -1 22 2 22 6 0 5 15 9 33 9 17 1 44 6 58 13 33 15 189
180 163 171 -15 -5 -16 -4 -4 4 8 6 17 9 20 7 4 -2 47 37 96 88 49 50 83 87
75 80 -7 -6 -19 -9 -26 -7 -7 3 -41 -2 -75 -11 -49 -13 -82 -31 -151 -84 -80
-62 -86 -69 -66 -78 19 -9 16 -11 -26 -29 -26 -10 -47 -22 -47 -26 0 -8 -118
-92 -131 -94 -5 -1 -14 -2 -20 -3 -5 0 -7 -6 -4 -11 4 -7 -3 -8 -21 -4 -24 6
-40 9 -82 13 -7 0 -11 5 -8 10 7 10 -20 9 -30 -2 -12 -12 -34 -8 -34 6 0 7 12
30 26 52 15 22 21 34 13 28 -22 -21 -30 -15 -24 19 5 27 4 30 -9 18 -13 -10
-17 -9 -22 3 -3 9 -1 25 6 36 6 12 8 21 6 21 -3 0 -12 -12 -20 -27 -9 -17 -15
-22 -16 -12 -1 40 123 216 264 378 55 63 63 88 25 76 -14 -5 -19 -2 -19 12 0
10 -9 25 -19 33 -11 7 -17 18 -14 23 4 6 -3 8 -15 5 -18 -5 -20 -3 -12 12 9
17 4 30 -11 30 -4 0 -17 -16 -29 -35 -15 -25 -27 -34 -39 -30 -12 3 -28 -10
-55 -45 -21 -27 -40 -50 -43 -50 -9 0 24 48 135 193 46 60 77 106 70 102 -7
-4 7 11 32 33 25 23 41 41 36 42 -5 0 -2 7 5 17 13 15 12 15 -7 5 -12 -6 -25
-8 -29 -4 -5 4 -5 2 -2 -4 4 -7 0 -15 -9 -18 -8 -3 -12 -10 -9 -16 4 -6 11 -7
17 -4 6 4 8 3 5 -3 -8 -13 -54 -8 -73 8 -12 10 -15 10 -12 -2 2 -8 -3 -13 -10
-11 -8 1 -11 -2 -8 -7 3 -5 -1 -14 -9 -21 -12 -10 -18 -10 -30 0 -13 11 -7 28
46 129 239 449 582 847 1019 1182 123 95 309 223 355 247 79 39 190 101 182
102 -17 0 -218 -106 -317 -168 -381 -238 -691 -525 -993 -917 -42 -55 -88
-113 -102 -130 l-25 -30 10 33 c14 52 54 115 147 231 65 82 72 94 31 51 -29
-30 -52 -58 -51 -62 1 -3 -5 -12 -14 -20 -15 -11 -16 -11 -9 7 7 18 5 18 -14
-2 -11 -13 -26 -23 -32 -23 -7 0 -6 -5 2 -15 11 -13 10 -14 -4 -9 -11 4 -16 1
-16 -10 0 -8 -6 -14 -12 -12 -7 1 -9 1 -5 -2 5 -2 1 -13 -9 -23 -9 -10 -13
-19 -9 -19 4 0 -2 -9 -15 -20 -12 -11 -27 -17 -31 -14 -5 3 -9 0 -9 -6 0 -6
-5 -8 -10 -5 -6 4 -7 11 -4 17 4 7 2 8 -5 4 -6 -4 -9 -11 -6 -15 2 -4 -7 -23
-20 -41 -14 -19 -25 -30 -25 -26 0 5 -8 2 -17 -5 -14 -12 -16 -12 -9 1 4 9 1
8 -7 -2 -8 -10 -21 -18 -30 -18 -9 0 -19 -4 -22 -10 -3 -6 1 -7 9 -4 9 3 16 1
16 -5 0 -6 -7 -11 -15 -11 -9 0 -18 -7 -21 -15 -4 -8 -10 -15 -16 -15 -5 0 -6
5 -2 12 4 7 3 8 -4 4 -6 -4 -8 -14 -5 -24 3 -9 3 -14 -2 -10 -4 4 -14 0 -21
-10 -12 -15 -15 -15 -23 -2 -11 16 -13 15 -29 -15 -42 -74 33 160 113 356 159
389 404 768 716 1105 84 91 239 244 248 244 2 0 27 21 55 48 120 109 399 307
561 399 309 174 540 262 905 347 174 40 552 58 784 36 662 -63 1273 -406 1602
-900 77 -114 190 -331 165 -316 -4 3 -8 -1 -8 -9 0 -8 4 -12 8 -9 11 7 32 -35
25 -52 -3 -8 -2 -14 3 -14 4 0 5 -15 3 -32 -3 -18 -7 -28 -9 -21 -2 6 -24 17
-49 24 -31 9 -44 19 -44 31 0 11 -7 18 -19 18 -27 0 -34 15 -15 34 14 15 14
16 0 16 -9 0 -16 -4 -16 -8 0 -5 -7 -9 -15 -9 -8 0 -12 4 -9 9 6 9 -1 10 -61
12 -22 1 -47 4 -55 6 -10 3 -15 -1 -14 -12 1 -11 -5 -18 -16 -18 -10 0 -21 -7
-24 -16 -4 -9 -13 -14 -21 -10 -11 4 -15 -2 -15 -19 0 -14 -6 -25 -13 -25 -7
0 -22 -8 -33 -18 -16 -15 -22 -16 -31 -6 -7 6 -9 15 -5 19 4 5 -4 5 -17 2 -21
-5 -23 -3 -19 24 4 27 3 28 -16 15 -18 -12 -22 -11 -32 8 -6 12 -16 20 -22 18
-7 -1 -12 2 -12 8 0 5 -9 10 -20 10 -12 0 -32 12 -45 26 -14 15 -25 22 -25 16
0 -6 -7 -9 -16 -5 -8 3 -13 12 -10 19 3 8 0 11 -8 8 -8 -3 -17 -1 -21 5 -3 6
-11 11 -16 11 -6 0 -7 -5 -3 -12 4 -7 3 -8 -5 -4 -9 6 -9 11 0 22 10 12 9 17
0 27 -10 9 -11 9 -6 -3 4 -11 -1 -16 -13 -16 -13 0 -18 6 -14 18 2 10 -1 18
-7 18 -6 0 -11 -6 -11 -14 0 -7 -7 -19 -15 -26 -12 -10 -15 -9 -15 4 0 11 5
14 12 10 6 -4 8 -3 5 3 -4 6 -24 9 -44 7 -35 -3 -37 -2 -19 11 19 14 19 15 2
15 -11 0 -24 -8 -31 -17 -11 -15 -14 -15 -31 5 -13 16 -20 18 -27 9 -5 -8 -7
-5 -4 8 2 11 9 19 16 17 12 -2 9 9 -12 35 -7 10 -16 9 -40 -3 -26 -14 -36 -14
-69 -3 -21 6 -38 16 -38 21 0 5 -5 6 -10 3 -6 -3 -13 1 -16 9 -3 9 -16 16 -28
16 -15 0 -17 -3 -8 -9 11 -7 11 -9 0 -13 -19 -6 -100 26 -91 37 4 4 3 5 -3 2
-16 -9 -75 13 -68 25 4 6 -2 8 -16 3 -12 -4 -20 -3 -17 1 3 5 -5 9 -16 10 -12
0 -62 13 -112 28 -258 77 -521 106 -803 87 -102 -7 -201 -18 -221 -26 -20 -7
-76 -20 -126 -29 -137 -25 -275 -62 -430 -112 -194 -64 -265 -97 -265 -123 0
-21 14 -28 24 -12 7 11 194 85 311 123 194 62 463 119 654 138 810 80 1621
-294 2049 -947 147 -226 241 -488 242 -675 0 -43 3 -78 8 -78 10 0 99 198 133
297 54 157 64 229 64 453 0 158 -4 226 -18 295 -54 266 -181 541 -356 770 -25
33 -91 107 -147 165 -90 94 -108 118 -163 227 -120 236 -311 448 -543 604
-306 204 -613 310 -1012 348 -119 12 -337 13 -256 2z m114 -409 c3 -5 -1 -9
-9 -9 -8 0 -12 4 -9 9 3 4 7 8 9 8 2 0 6 -4 9 -8z m-74 -42 c-12 -8 -12 -10
-1 -10 8 0 12 -3 8 -6 -9 -9 -28 6 -22 17 4 5 12 9 18 9 7 0 6 -4 -3 -10z
m1200 -1192 c0 -4 7 -4 17 -1 11 4 14 3 9 -5 -4 -7 -2 -12 5 -12 7 0 10 -3 7
-6 -4 -3 -23 4 -45 15 -28 15 -32 19 -15 18 12 -1 22 -5 22 -9z m150 -7 c0 -4
-6 -8 -12 -8 -7 0 -22 -4 -33 -8 -17 -7 -17 -5 4 13 22 20 41 21 41 3z m-7
-70 c4 -1 12 -1 19 -1 6 0 8 -3 5 -6 -4 -4 14 -20 38 -35 25 -16 45 -31 45
-33 0 -3 -22 9 -50 26 -27 17 -50 35 -50 40 0 5 -4 7 -9 4 -4 -3 -17 1 -27 10
-18 15 -18 15 1 6 11 -6 23 -10 28 -11z m198 -137 c9 -11 2 -9 -18 6 -18 13
-33 25 -33 27 0 8 38 -17 51 -33z m569 32 c0 -2 -7 -7 -16 -10 -8 -3 -12 -2
-9 4 6 10 25 14 25 6z m-25 -35 c3 -5 0 -13 -6 -17 -8 -5 -9 -3 -4 6 6 10 4
12 -9 7 -10 -4 -15 -3 -11 3 8 13 22 13 30 1z m-454 -68 c13 -16 12 -17 -3 -4
-10 7 -18 15 -18 17 0 8 8 3 21 -13z m297 -5 c-2 -6 -10 -14 -16 -16 -7 -2
-10 2 -6 12 7 18 28 22 22 4z m-238 -43 c13 -14 21 -25 18 -25 -2 0 -15 11
-28 25 -13 14 -21 25 -18 25 2 0 15 -11 28 -25z m-4146 -830 c-4 -8 -11 -12
-16 -9 -6 4 -5 10 3 15 19 12 19 11 13 -6z m2184 -99 c1 -2 -9 -6 -23 -8 -14
-3 -30 1 -37 9 -9 12 -6 13 23 8 18 -3 35 -8 37 -9z m117 -51 c196 -13 506
-118 703 -237 122 -73 244 -167 236 -180 -4 -6 -3 -8 3 -5 27 17 263 -278 246
-306 -3 -5 -1 -7 4 -4 11 7 48 -67 46 -90 0 -7 3 -13 7 -13 5 0 12 -15 16 -32
10 -43 9 -39 23 -73 20 -48 26 -89 12 -81 -6 4 -11 13 -10 19 4 34 -2 46 -21
42 -11 -2 -18 0 -15 6 4 5 1 9 -5 9 -6 0 -8 5 -5 10 3 6 1 10 -4 10 -6 0 -11
5 -11 11 0 5 5 7 11 4 17 -11 -14 38 -33 53 -10 7 -18 21 -18 32 0 10 -15 27
-35 39 -32 18 -35 23 -24 42 6 12 7 19 1 15 -5 -3 -15 1 -22 9 -7 8 -17 12
-23 8 -6 -3 -7 -1 -3 5 4 6 14 8 24 5 9 -3 14 -2 9 2 -4 5 -17 9 -30 10 -12 1
-27 11 -32 22 -6 12 -16 27 -23 35 -6 8 -8 19 -4 24 4 4 -1 2 -10 -5 -12 -9
-18 -10 -18 -2 0 6 -8 11 -17 12 -12 0 -13 2 -5 6 19 7 -5 33 -32 34 -11 0
-15 3 -8 6 6 2 10 9 6 14 -3 5 0 9 7 9 7 0 9 3 6 6 -4 4 -14 1 -24 -7 -9 -8
-14 -9 -10 -2 4 6 2 15 -4 19 -8 4 -9 3 -5 -4 4 -7 2 -12 -5 -12 -8 0 -7 -5 2
-17 13 -16 12 -17 -3 -5 -9 7 -15 24 -13 37 2 20 -1 23 -14 15 -10 -5 -23 -5
-32 1 -7 5 -9 9 -3 9 6 0 11 7 11 15 0 13 -3 13 -19 -2 -11 -9 -18 -11 -18 -5
0 7 -7 12 -15 12 -8 0 -15 4 -15 10 0 5 -13 7 -32 3 -28 -6 -31 -4 -26 15 4
12 2 25 -3 28 -5 3 -9 2 -8 -3 1 -4 1 -16 0 -26 -1 -17 -2 -17 -17 -2 -13 13
-19 13 -32 3 -11 -10 -16 -10 -19 -1 -2 7 -11 9 -20 6 -12 -5 -14 -3 -8 7 6
10 4 12 -8 7 -9 -3 -19 -1 -23 5 -5 7 -2 8 6 3 9 -5 11 -4 6 4 -4 6 -13 8 -19
4 -6 -4 -23 -8 -36 -9 -20 -2 -22 -1 -11 6 12 8 12 10 1 10 -8 0 -20 -8 -28
-17 -8 -10 -12 -13 -9 -6 4 6 0 15 -8 20 -8 4 -14 12 -13 17 1 5 -6 10 -16 12
-9 1 -15 -2 -11 -7 3 -5 10 -7 15 -4 5 3 6 -1 2 -10 -4 -13 -8 -14 -14 -4 -6
10 -10 10 -23 0 -11 -9 -19 -10 -33 -1 -16 10 -16 10 4 5 19 -5 42 10 30 21
-10 11 -47 13 -41 2 5 -7 -1 -9 -19 -4 -14 3 -29 2 -32 -4 -5 -8 -23 -2 -55
18 -2 2 2 7 10 13 12 7 10 8 -7 6 -12 -2 -25 -6 -29 -10 -3 -3 -13 0 -21 8
-26 27 -37 16 -13 -12 13 -16 -59 57 -160 161 -102 104 -189 195 -193 202 -6
10 -1 13 20 9 15 -2 64 -7 108 -10z m-274 -79 c17 -14 35 -26 41 -26 6 0 9 -3
5 -6 -3 -3 26 -38 64 -77 106 -108 209 -228 205 -236 -1 -3 8 -16 21 -28 13
-12 23 -19 23 -15 0 9 20 -21 20 -31 0 -5 -6 -5 -12 -1 -7 4 -10 4 -6 0 3 -4
8 -6 11 -4 7 5 37 -24 37 -37 0 -7 -9 -23 -21 -36 -11 -13 -18 -18 -14 -11 3
6 1 12 -4 12 -13 0 -13 -3 -5 -24 3 -9 12 -12 22 -8 14 5 15 4 2 -10 -8 -9
-18 -14 -22 -11 -4 2 -5 -3 -2 -12 4 -9 13 -14 20 -11 7 3 16 0 20 -6 4 -6 3
-8 -4 -4 -17 10 -26 -34 -12 -60 8 -13 9 -30 5 -41 -5 -10 -7 -22 -6 -27 1 -5
-5 -6 -14 -3 -8 4 -15 2 -15 -3 0 -6 11 -10 23 -10 13 0 24 -6 24 -13 0 -8 -9
-12 -21 -10 -19 4 -21 0 -23 -57 0 -33 -6 -67 -12 -74 -8 -10 -9 -16 -1 -21 5
-3 10 -11 10 -16 0 -6 -5 -7 -12 -3 -7 4 -2 -7 11 -24 12 -18 26 -30 31 -27 5
3 11 1 14 -4 11 -17 -11 -22 -24 -6 -17 21 -40 1 -39 -34 1 -22 2 -23 7 -6 7
20 24 26 37 13 11 -10 13 -88 3 -94 -5 -3 -5 -10 -2 -16 4 -7 2 -8 -4 -4 -7 4
-12 2 -12 -4 0 -6 -5 -8 -11 -4 -8 5 -6 10 5 16 14 8 15 12 4 26 -12 15 -11
16 5 3 17 -13 18 -12 12 10 -3 13 -7 34 -8 46 -2 35 -16 12 -23 -37 -4 -25
-13 -50 -22 -56 -17 -12 -7 -38 12 -31 7 3 13 -5 14 -16 1 -17 -1 -19 -8 -7
-5 8 -10 10 -10 5 0 -6 4 -15 9 -20 5 -6 12 -28 15 -50 5 -31 4 -35 -3 -17
-12 27 -24 28 -42 5 -11 -15 -11 -16 1 -5 22 19 25 15 25 -27 0 -22 -2 -38 -4
-36 -4 5 -31 -21 -31 -29 0 -3 3 -5 8 -5 32 5 52 -3 52 -22 0 -11 -5 -17 -10
-14 -6 4 -8 11 -5 16 4 5 -3 9 -14 9 -11 0 -25 -10 -32 -22 -10 -18 -9 -20 5
-15 11 5 16 1 16 -13 0 -11 -5 -20 -11 -20 -6 0 -8 -7 -5 -16 3 -8 2 -12 -4
-9 -6 3 -10 1 -10 -4 0 -6 2 -11 4 -11 2 0 12 -3 22 -7 12 -4 15 -3 10 5 -5 8
-2 10 10 5 15 -5 15 -7 0 -15 -9 -5 -16 -23 -17 -41 -1 -31 -1 -31 -9 -7 -8
24 -8 24 -9 3 -1 -29 2 -39 12 -36 4 2 7 -1 7 -7 0 -5 -11 -12 -25 -16 -30 -7
-34 -41 -5 -46 15 -2 17 -7 10 -18 -9 -13 -11 -13 -19 0 -8 11 -12 9 -21 -14
-7 -20 -8 -32 0 -40 5 -5 10 -18 10 -28 0 -10 5 -18 10 -18 6 0 10 -9 10 -20
0 -11 5 -20 11 -20 5 0 7 -5 4 -10 -4 -6 -10 -8 -15 -5 -5 3 -11 1 -15 -4 -3
-6 4 -8 16 -6 12 3 29 0 38 -5 11 -6 12 -9 3 -10 -7 0 -11 -4 -7 -9 3 -6 -1
-13 -8 -18 -8 -4 -19 -18 -26 -30 -9 -18 -9 -23 1 -23 9 0 9 -3 -2 -10 -18
-11 -8 -22 23 -26 12 -1 25 -3 30 -3 4 -1 7 -8 7 -16 0 -11 -11 -15 -37 -15
-50 0 -35 -10 29 -20 35 -5 -31 -8 -189 -9 l-243 -1 0 745 0 745 -402 2 c-222
0 -388 3 -370 5 18 2 46 17 64 33 17 16 35 27 40 24 4 -3 8 0 8 5 0 6 3 10 8
10 21 -4 32 2 26 13 -5 8 -2 9 10 5 9 -4 14 -3 11 2 -3 5 -1 12 5 16 6 4 8 10
5 14 -2 5 7 7 21 5 14 -1 23 0 20 3 -8 9 15 34 25 27 5 -2 11 7 15 21 3 13 10
22 15 19 5 -3 9 -1 9 5 0 6 7 7 17 4 11 -4 14 -3 9 5 -4 7 0 19 8 28 12 12 16
12 16 2 0 -10 3 -9 10 2 5 8 10 11 10 5 0 -5 8 2 18 16 9 14 23 24 30 22 6 -3
12 0 12 7 0 6 4 8 10 5 6 -3 7 1 4 9 -3 9 -1 16 4 16 6 0 18 7 27 17 14 14 18
14 26 2 7 -11 9 -11 9 4 0 10 8 17 20 17 13 0 20 7 20 20 0 11 5 20 10 20 19
0 25 4 57 38 19 20 37 31 44 26 7 -4 9 -3 6 3 -4 5 6 16 21 24 15 8 30 18 35
24 4 6 11 4 17 -5 9 -13 10 -13 11 0 1 8 1 18 0 23 0 4 6 7 14 7 8 0 15 4 15
9 0 16 58 -6 91 -33z m-2301 -405 c0 -5 -7 -11 -14 -14 -10 -4 -13 -1 -9 9 6
15 23 19 23 5z m3365 -9 c-3 -3 -11 0 -18 7 -9 10 -8 11 6 5 10 -3 15 -9 12
-12z m-1211 -170 c3 -5 2 -306 -1 -669 l-6 -661 -136 -6 c-75 -3 -141 -6 -147
-7 -7 -1 -11 -20 -11 -43 l1 -41 -90 -6 c-49 -4 -167 -7 -261 -8 l-173 -1 0
718 c0 395 3 722 7 725 9 10 811 9 817 -1z m1686 -83 c12 -23 20 -43 18 -45
-3 -2 -14 17 -26 41 -27 56 -20 60 8 4z m-105 -59 c3 -6 -1 -7 -9 -4 -18 7
-21 14 -7 14 6 0 13 -4 16 -10z m180 -126 c14 -44 25 -87 24 -95 0 -12 -69
187 -69 201 0 18 24 -38 45 -106z m-1222 54 c2 -20 -2 -35 -8 -35 -6 0 -10 12
-9 26 1 14 3 32 3 40 2 26 12 4 14 -31z m-1405 -592 c2 -324 1 -599 -2 -610
-5 -20 -10 -21 -133 -16 -119 5 -132 7 -181 35 -30 17 -117 65 -195 108 -199
110 -311 178 -320 194 -5 7 -12 11 -17 8 -4 -3 -10 2 -13 10 -4 9 -1 12 7 9 8
-3 16 5 20 20 4 17 13 26 26 26 13 0 18 5 13 16 -4 10 2 17 17 21 16 4 18 8 8
14 -10 7 -9 9 4 9 9 0 20 5 24 12 4 7 3 8 -4 4 -7 -4 -12 -2 -12 3 0 6 5 11
10 11 6 0 24 14 42 30 17 17 36 30 42 30 6 0 5 4 -3 9 -10 7 -7 9 12 8 14 -1
24 -4 22 -7 -2 -3 0 -12 6 -20 5 -10 9 46 9 151 l0 167 179 7 c98 4 187 5 197
1 23 -7 49 8 40 23 -4 6 -36 11 -77 11 -53 0 -69 3 -69 14 0 16 46 56 64 56 6
0 20 14 31 30 11 17 32 36 48 43 15 6 25 18 22 24 -4 12 0 14 20 13 7 -1 63
53 63 60 -1 21 3 30 11 26 5 -3 17 6 27 21 31 48 38 53 49 34 6 -10 11 -236
13 -605z m1398 448 c1 -9 0 -13 -4 -10 -3 4 -7 14 -8 22 -1 9 0 13 4 10 3 -4
7 -14 8 -22z m1261 -61 c-3 -10 -5 -4 -5 12 0 17 2 24 5 18 2 -7 2 -21 0 -30z
m-1297 -133 c0 -5 -4 -10 -10 -10 -5 0 -10 5 -10 10 0 6 5 10 10 10 6 0 10 -4
10 -10z m73 -20 c9 -11 8 -11 -7 0 -18 13 -19 13 -14 -2 4 -10 2 -15 -7 -14
-20 3 -28 13 -21 24 8 14 33 9 49 -8z m-36 -72 c-3 -7 -5 -2 -5 12 0 14 2 19
5 13 2 -7 2 -19 0 -25z m8 -67 c3 -5 2 -12 -3 -15 -5 -3 -9 1 -9 9 0 17 3 19
12 6z m-2582 -48 c-7 -2 -21 -2 -30 0 -10 3 -4 5 12 5 17 0 24 -2 18 -5z m-48
-23 c3 -5 0 -10 -9 -10 -8 0 -23 -3 -33 -6 -16 -6 -16 -5 2 9 24 19 32 21 40
7z m68 3 c-7 -2 -19 -2 -25 0 -7 3 -2 5 12 5 14 0 19 -2 13 -5z m2514 -70 c-3
-10 -5 -4 -5 12 0 17 2 24 5 18 2 -7 2 -21 0 -30z m-44 -252 c4 10 6 9 6 -3 1
-9 -3 -19 -7 -22 -13 -8 -35 11 -27 24 6 10 9 10 15 0 6 -9 9 -9 13 1z m24
-63 c-3 -7 -5 -2 -5 12 0 14 2 19 5 13 2 -7 2 -19 0 -25z m14 -35 c-12 -20
-14 -14 -5 12 4 9 9 14 11 11 3 -2 0 -13 -6 -23z m2 -109 c-7 -3 -9 -13 -6
-22 4 -14 3 -14 -5 -2 -12 16 -7 30 11 29 9 0 9 -2 0 -5z"/>
<path d="M5832 4471 c4 -13 18 -16 19 -4 0 4 -5 9 -11 12 -7 2 -11 -2 -8 -8z"/>
<path d="M6136 4432 c-3 -5 1 -9 9 -9 8 0 15 4 15 9 0 4 -4 8 -9 8 -6 0 -12
-4 -15 -8z"/>
<path d="M6650 4070 c0 -5 5 -10 11 -10 5 0 7 5 4 10 -3 6 -8 10 -11 10 -2 0
-4 -4 -4 -10z"/>
<path d="M5621 4296 c-12 -14 -12 -19 -1 -29 9 -8 11 -9 6 0 -3 6 -1 13 5 15
7 2 10 10 8 17 -4 10 -8 9 -18 -3z"/>
<path d="M5597 4154 c-3 -5 -2 -16 3 -23 4 -8 6 -27 3 -44 -4 -27 -3 -29 10
-19 15 13 16 22 4 52 -3 8 -7 22 -9 30 -3 8 -7 10 -11 4z"/>
<path d="M5562 3740 c0 -14 2 -19 5 -12 2 6 2 18 0 25 -3 6 -5 1 -5 -13z"/>
<path d="M5551 3464 c0 -11 3 -14 6 -6 3 7 2 16 -1 19 -3 4 -6 -2 -5 -13z"/>
<path d="M5555 2919 c-4 -6 -12 -8 -19 -6 -6 3 -12 -3 -12 -13 0 -10 6 -16 13
-13 7 3 13 9 13 15 0 5 4 7 8 4 5 -3 9 1 9 9 0 18 -3 19 -12 4z"/>
<path d="M4312 4078 l1 -63 7 60 c4 33 7 52 8 42 1 -10 7 -15 12 -12 6 4 8 10
6 14 -3 4 7 8 21 9 46 4 38 12 -10 12 l-47 0 2 -62z"/>
<path d="M5048 4056 c3 -65 0 -87 -12 -99 -9 -9 -16 -22 -16 -31 0 -8 -10 -23
-23 -33 -13 -10 -22 -23 -20 -30 2 -6 -9 -16 -24 -21 -24 -9 -19 -11 40 -11
l67 -1 0 155 c0 85 -3 155 -7 155 -5 0 -7 -38 -5 -84z"/>
<path d="M3649 3488 c3 -51 7 -77 8 -58 2 19 10 49 18 67 8 17 15 38 15 47 0
16 19 23 80 29 19 2 -1 5 -45 5 l-80 2 4 -92z"/>
<path d="M5837 7620 c-3 -11 -1 -20 4 -20 5 0 9 9 9 20 0 11 -2 20 -4 20 -2 0
-6 -9 -9 -20z"/>
<path d="M5726 7436 c3 -9 11 -16 16 -16 13 0 5 23 -10 28 -7 2 -10 -2 -6 -12z"/>
<path d="M5510 7303 c0 -6 -8 -13 -17 -15 -15 -3 -14 -5 4 -10 27 -7 36 2 22
22 -5 9 -9 10 -9 3z"/>
<path d="M7710 6059 c0 -4 6 -9 13 -12 8 -3 14 0 14 7 0 7 -6 13 -14 13 -7 0
-13 -4 -13 -8z"/>
<path d="M7805 6051 c-3 -5 -2 -12 3 -15 5 -3 9 1 9 9 0 17 -3 19 -12 6z"/>
<path d="M7680 6011 c0 -5 10 -7 23 -4 18 4 20 3 7 -7 -13 -10 -12 -11 3 -6
10 3 21 6 23 6 2 0 4 5 4 10 0 6 -13 10 -30 10 -16 0 -30 -4 -30 -9z"/>
<path d="M7646 5984 c-9 -24 -7 -27 9 -10 17 17 19 26 6 26 -5 0 -12 -7 -15
-16z"/>
<path d="M7528 5943 c6 -2 18 -2 25 0 6 3 1 5 -13 5 -14 0 -19 -2 -12 -5z"/>
<path d="M7535 5879 c-4 -6 -5 -12 -2 -15 2 -3 7 2 10 11 7 17 1 20 -8 4z"/>
<path d="M4908 5523 c7 -3 16 -2 19 1 4 3 -2 6 -13 5 -11 0 -14 -3 -6 -6z"/>
<path d="M3479 5293 c-13 -16 -12 -17 4 -4 9 7 17 15 17 17 0 8 -8 3 -21 -13z"/>
<path d="M4148 5229 c-21 -11 -38 -22 -38 -24 0 -3 18 4 40 15 22 11 40 23 40
25 0 7 0 7 -42 -16z"/>
<path d="M3359 5163 c-13 -16 -12 -17 4 -4 16 13 21 21 13 21 -2 0 -10 -8 -17
-17z"/>
<path d="M3984 5134 c-18 -14 -18 -15 4 -4 12 6 22 13 22 15 0 8 -5 6 -26 -11z"/>
<path d="M3090 4895 c-7 -9 -11 -18 -8 -20 3 -3 11 1 18 10 7 9 11 18 8 20 -3
3 -11 -1 -18 -10z"/>
<path d="M3349 4663 c-13 -16 -12 -17 4 -4 16 13 21 21 13 21 -2 0 -10 -8 -17
-17z"/>
<path d="M3190 4505 c-7 -8 -17 -12 -23 -8 -6 4 -7 1 -3 -6 6 -9 13 -8 27 5
10 9 19 19 19 21 0 7 -8 2 -20 -12z"/>
<path d="M4166 4441 c-3 -5 -29 -16 -58 -26 -81 -26 -316 -150 -306 -161 2 -1
51 2 108 8 l105 10 63 62 c60 58 109 116 98 116 -3 0 -7 -4 -10 -9z"/>
<path d="M2640 4302 c0 -17 -41 -56 -49 -46 -3 5 -12 10 -19 12 -9 2 -6 -11 9
-38 12 -22 26 -40 29 -40 9 0 43 111 36 118 -3 3 -6 0 -6 -6z"/>
<path d="M6885 4289 c-4 -6 -5 -12 -2 -15 2 -3 7 2 10 11 7 17 1 20 -8 4z"/>
<path d="M3787 4155 c-83 -16 -116 -27 -143 -48 -50 -41 -44 -50 29 -42 133
13 161 23 206 69 23 23 36 43 29 43 -7 -1 -62 -10 -121 -22z"/>
<path d="M3635 3974 c-11 -3 -29 -7 -40 -9 -11 -2 -54 -29 -95 -60 l-75 -56
75 6 c41 3 85 8 97 11 27 5 132 100 112 102 -8 0 -23 3 -34 5 -11 3 -29 3 -40
1z"/>
</g>
</svg>
